<svg width="500" height="500" viewBox="0 0 500 500" fill="none" xmlns="http://www.w3.org/2000/svg">
<circle cx="250" cy="250" r="250" fill="#18192F"/>
<circle cx="250" cy="250" r="235" fill="#FAAF3A"/>
<circle cx="250" cy="250" r="225" fill="#18192F"/>
<circle cx="250" cy="250" r="210" fill="#FAAF3A"/>
<line x1="92.1695" y1="82.4942" x2="416.372" y2="406.697" stroke="#FAAF3A" stroke-width="15"/>
<line x1="83.6279" y1="406.697" x2="407.83" y2="82.4941" stroke="#FAAF3A" stroke-width="15"/>
<line x1="243.533" y1="479.145" x2="243.533" y2="20.6529" stroke="#FAAF3A" stroke-width="15"/>
<line x1="21.7867" y1="242.399" x2="480.278" y2="242.399" stroke="#FAAF3A" stroke-width="15"/>
<path d="M322.991 209.484C334.328 222.732 340 240.757 340 263.556V364H279.692V271.258C279.692 261.199 277.063 253.342 271.806 247.689C266.545 242.042 259.482 239.217 250.619 239.217C241.542 239.217 234.327 242.144 228.97 247.997C223.605 253.851 220.927 261.916 220.927 272.185V364H160V136H220.927V220.113C225.878 210.87 233.093 203.476 242.578 197.931C252.06 192.382 263.193 189.61 275.981 189.61C295.977 189.61 311.647 196.233 322.991 209.484Z" fill="#18192F"/>
</svg>