<svg id="logo" xmlns="http://www.w3.org/2000/svg" viewBox="0 0 2000 1999.98"><defs><style>.cls-1{fill:#eab300;}.cls-2{fill:#fff;}</style></defs><title>bai-icon-full</title><path class="cls-1" d="M0,1867.66C0,1940.43,59.54,2000,132.32,2000H1867.68c72.78,0,132.32-59.55,132.32-132.32V132.32C2000,59.54,1940.46,0,1867.68,0H132.32C59.54,0,0,59.54,0,132.32V1867.66Z"/><path class="cls-2" d="M1294.33,960.35c62-42.55,104.56-90.43,104.56-180.74,0-143.47-142.7-210.76-229.57-219.29-7.07-.78-26.83-1.13-26.83-1.13l.18-137.25-141.29.34.34,137.26-94.63-.26.26-136.74-144.42.09-.17,136c-25.36.61-177.63.43-177.63.43V680.57s38.48,0,49.52.17c47.71-.08,69.19,30.12,69.19,51.07l.08,7.6v523.83c-.68,18.54-15.52,33-32,33.89-21.65,1-53.83.25-53.83.25l-27.78,137.7,173.14.17L763.36,1573h144l-.26-138h94.63l-.17,138.21h141.12l.08-137.43s7.77-.27,10.36-.27c162.87,0,304.86-96.45,307-252.5C1462,1055.23,1352.56,981.31,1294.33,960.35ZM907,898.39V690.06c19.33.09,90.59.26,133.11.26,4,0,7.28.7,11.1.89,57.87,2.81,93.9,25.78,113.24,53.45,13.14,18.79,19,39.43,19,56.86,0,16.4-4.39,33.39-7.25,41.56a105.22,105.22,0,0,1-17.74,32.1c-10,12.26-15.76,16.37-22.06,20.79-21.61,15.17-51.89,27.07-95.48,29.18-.58,0-131.85.34-133.93.25Zm318.78,309.3a113.87,113.87,0,0,1-19.17,34.69c-10.81,13.25-17,17.7-23.84,22.47-23.35,16.39-56.07,29.26-103.19,31.54-.62,0-170.34.37-172.58.26V1042.32c20.88.1,125.75.28,171.7.28,4.34,0,7.86.77,12,1,62.54,3,101.48,27.86,122.38,57.76,14.2,20.31,20.55,42.61,20.55,61.44C1233.62,1180.5,1228.86,1198.86,1225.78,1207.69Z"/></svg>