<?xml version="1.0" standalone="no"?><!DOCTYPE svg PUBLIC "-//W3C//DTD SVG 1.1//EN" "http://www.w3.org/Graphics/SVG/1.1/DTD/svg11.dtd"><svg t="1632798151131" class="icon" viewBox="0 0 1024 1024" version="1.1" xmlns="http://www.w3.org/2000/svg" p-id="3197" xmlns:xlink="http://www.w3.org/1999/xlink" width="200" height="200"><defs><style type="text/css"></style></defs><path d="M838.7 122.2c16.4 0 32 6.5 43.7 18.3 11.8 11.8 18.3 27.3 18.3 43.7v655.3c0 16.4-6.5 32-18.3 43.7-11.8 11.8-27.3 18.3-43.7 18.3H183.3c-16.4 0-32-6.5-43.7-18.3-11.8-11.8-18.3-27.3-18.3-43.7V184.2c0-16.4 6.5-32 18.3-43.7 11.8-11.8 27.3-18.3 43.7-18.3h655.4m0-58H183.3c-66 0-120 54-120 120v655.3c0 66 54 120 120 120h655.3c66 0 120-54 120-120V184.2c0.1-66-53.9-120-119.9-120z" fill="" p-id="3198"></path></svg>