<?xml version="1.0" standalone="no"?><!DOCTYPE svg PUBLIC "-//W3C//DTD SVG 1.1//EN" "http://www.w3.org/Graphics/SVG/1.1/DTD/svg11.dtd"><svg t="1632798144022" class="icon" viewBox="0 0 1024 1024" version="1.1" xmlns="http://www.w3.org/2000/svg" p-id="3059" xmlns:xlink="http://www.w3.org/1999/xlink" width="200" height="200"><defs><style type="text/css"></style></defs><path d="M186 63h655c66.274 0 120 53.726 120 120v655c0 66.274-53.726 120-120 120H186c-66.274 0-120-53.726-120-120V183c0-66.274 53.726-120 120-120z" fill="#2F54EB" p-id="3060"></path><path d="M391.84 648.34l321.887-321.635c15.627-15.615 40.953-15.605 56.568 0.022 15.615 15.627 15.605 40.953-0.022 56.568L419.957 733.338c-15.679 15.666-41.108 15.597-56.7-0.156L201.571 569.845c-15.541-15.7-15.412-41.027 0.288-56.568 15.7-15.541 41.026-15.413 56.568 0.288L391.84 648.34z" fill="#FFFFFF" p-id="3061"></path></svg>