<?xml version="1.0" standalone="no"?><!DOCTYPE svg PUBLIC "-//W3C//DTD SVG 1.1//EN" "http://www.w3.org/Graphics/SVG/1.1/DTD/svg11.dtd"><svg t="1632728832894" class="icon" viewBox="0 0 1307 1024" version="1.1" xmlns="http://www.w3.org/2000/svg" p-id="4570" xmlns:xlink="http://www.w3.org/1999/xlink" width="255.2734375" height="200"><defs><style type="text/css"></style></defs><path d="M268.70922 566.468085h929.588652c36.312057 0 72.624113-29.049645 72.624114-72.624113 0-36.312057-29.049645-72.624113-72.624114-72.624114H305.021277l297.758865-297.758865c29.049645-29.049645 29.049645-72.624113 0-101.673759-29.049645-29.049645-72.624113-29.049645-101.673759 0L72.624113 450.269504c-14.524823 14.524823-21.787234 36.312057-21.787234 58.09929 0 21.787234 0 43.574468 21.787234 58.099291l428.48227 428.48227c29.049645 29.049645 72.624113 29.049645 101.673759 0 29.049645-29.049645 29.049645-72.624113 0-101.673759l-334.070922-326.808511z" fill="#999" p-id="4571"></path></svg>
