<?xml version="1.0" standalone="no"?><!DOCTYPE svg PUBLIC "-//W3C//DTD SVG 1.1//EN" "http://www.w3.org/Graphics/SVG/1.1/DTD/svg11.dtd"><svg t="1635933803431" class="icon" viewBox="0 0 1024 1024" version="1.1" xmlns="http://www.w3.org/2000/svg" p-id="5434" xmlns:xlink="http://www.w3.org/1999/xlink" width="128" height="128"><defs><style type="text/css"></style></defs><path d="M403.228444 432.014222h-232.675555a12.344889 12.344889 0 0 1-9.045333-20.707555l220.387555-236.771556a12.344889 12.344889 0 0 1 21.333333 8.419556v151.324444c0 6.826667 5.518222 12.288 12.344889 12.288h453.859556c6.826667 0 12.344889 5.518222 12.344889 12.344889v60.757333c0 6.826667-5.518222 12.344889-12.344889 12.344889H403.228444z m217.543112 159.971556h232.675555a12.344889 12.344889 0 0 1 9.045333 20.707555l-220.387555 236.771556a12.344889 12.344889 0 0 1-21.333333-8.419556V690.062222a12.344889 12.344889 0 0 0-12.344889-12.344889H154.567111a12.344889 12.344889 0 0 1-12.344889-12.288v-61.155555c0-6.826667 5.518222-12.344889 12.344889-12.344889h466.204445z" fill="#527195" p-id="5435"></path></svg>
