<?xml version="1.0" standalone="no"?><!DOCTYPE svg PUBLIC "-//W3C//DTD SVG 1.1//EN" "http://www.w3.org/Graphics/SVG/1.1/DTD/svg11.dtd">
<svg t="1632730500974" class="icon" viewBox="0 0 1024 1024" version="1.1" xmlns="http://www.w3.org/2000/svg" p-id="8937" xmlns:xlink="http://www.w3.org/1999/xlink" width="200"
     height="200">
    <defs>
        <style type="text/css"></style>
    </defs>
    <path d="M423.633455 70.772364a48.989091 48.989091 0 1 1 19.269818 96.093091C270.522182 201.425455 144.523636 353.373091 144.523636 531.153455c0 205.218909 166.539636 371.595636 372.037819 371.595636 176.546909 0 327.749818-123.764364 363.938909-293.981091a48.989091 48.989091 0 1 1 95.860363 20.363636C930.606545 844.404364 739.607273 1000.727273 516.584727 1000.727273 257.000727 1000.727273 46.545455 790.504727 46.545455 531.153455 46.545455 306.432 205.730909 114.501818 423.633455 70.772364z m455.819636-0.930909A97.978182 97.978182 0 0 1 977.454545 167.796364V437.294545a48.989091 48.989091 0 1 1-97.978181 0V224.814545L487.377455 629.178182a48.989091 48.989091 0 0 1-66.304 3.746909l-2.97891-2.676364a48.989091 48.989091 0 0 1-1.070545-69.282909L798.254545 167.796364h-188.276363a48.989091 48.989091 0 0 1-48.872727-45.474909l-0.116364-3.49091c0-27.066182 21.946182-49.012364 48.989091-49.012363z"
          p-id="8938" fill="#999999"></path>
</svg>
