<?xml version="1.0" standalone="no"?><!DOCTYPE svg PUBLIC "-//W3C//DTD SVG 1.1//EN" "http://www.w3.org/Graphics/SVG/1.1/DTD/svg11.dtd"><svg t="1635927337001" class="icon" viewBox="0 0 1024 1024" version="1.1" xmlns="http://www.w3.org/2000/svg" p-id="2229" xmlns:xlink="http://www.w3.org/1999/xlink" width="128" height="128"><defs><style type="text/css"></style></defs><path d="M512 133.034667L180.736 298.666667 512 464.298667 843.264 298.666667 512 133.034667z m19.072-85.845334l426.666667 213.333334a42.666667 42.666667 0 0 1 0 76.330666l-426.666667 213.333334a42.581333 42.581333 0 0 1-38.144 0l-426.666667-213.333334a42.666667 42.666667 0 0 1 0-76.330666l426.666667-213.333334a42.581333 42.581333 0 0 1 38.144 0z m388.522667 426.666667a42.666667 42.666667 0 0 1 38.186666 76.330667l-426.666666 213.333333a42.581333 42.581333 0 0 1-38.144 0l-426.666667-213.333333a42.666667 42.666667 0 0 1 38.186667-76.330667L512 677.632l407.594667-203.776z m0 213.333333a42.666667 42.666667 0 0 1 38.186666 76.330667l-426.666666 213.333333a42.581333 42.581333 0 0 1-38.144 0l-426.666667-213.333333a42.666667 42.666667 0 0 1 38.186667-76.330667L512 890.965333l407.594667-203.776z" p-id="2230" fill="#ffffff"></path></svg>