<?xml version="1.0" standalone="no"?><!DOCTYPE svg PUBLIC "-//W3C//DTD SVG 1.1//EN" "http://www.w3.org/Graphics/SVG/1.1/DTD/svg11.dtd"><svg t="1634197880639" class="icon" viewBox="0 0 1024 1024" version="1.1" xmlns="http://www.w3.org/2000/svg" p-id="5164" xmlns:xlink="http://www.w3.org/1999/xlink" width="256" height="256"><defs><style type="text/css"></style></defs><path d="M562.996016 643.229748V72.074369a50.996016 50.996016 0 0 0-101.992032 0v571.155379a50.996016 50.996016 0 0 0 101.992032 0z" fill="#999999" p-id="5165"></path><path d="M513.087915 144.080744L802.337317 432.446215a50.996016 50.996016 0 0 0 71.93838-72.210358L513.087915 0 149.588313 362.411687A50.996016 50.996016 0 0 0 221.594688 434.486056L513.087915 144.148738zM53.035857 643.229748v184.537583c0 109.471448 105.255777 192.832935 230.026029 192.832935h457.876228c124.770252 0 230.026029-83.361487 230.026029-192.832935V643.229748a50.996016 50.996016 0 1 0-101.992031 0v184.537583c0 47.256308-55.075697 90.840903-128.033998 90.840903H283.061886c-72.9583 0-128.033997-43.65259-128.033998-90.840903V643.229748a50.996016 50.996016 0 0 0-101.992031 0z" fill="#999999" p-id="5166"></path></svg>