<?xml version="1.0" standalone="no"?><!DOCTYPE svg PUBLIC "-//W3C//DTD SVG 1.1//EN" "http://www.w3.org/Graphics/SVG/1.1/DTD/svg11.dtd"><svg t="1635933837463" class="icon" viewBox="0 0 1024 1024" version="1.1" xmlns="http://www.w3.org/2000/svg" p-id="6353" xmlns:xlink="http://www.w3.org/1999/xlink" width="128" height="128"><defs><style type="text/css"></style></defs><path d="M733.013333 503.893333h-185.173333V264.106667a35.84 35.84 0 0 0-72.106667 0v240.213333a72.106667 72.106667 0 0 0 72.106667 72.106667h185.173333a35.84 35.84 0 0 0 0-72.106667z m90.026667 319.146667A439.893333 439.893333 0 1 1 341.333333 106.666667a439.893333 439.893333 0 0 1 481.706667 716.373333zM512 0a512 512 0 1 0 512 512A512 512 0 0 0 512 0z" fill="#527195" p-id="6354"></path></svg>